<?xml version="1.0" encoding="UTF-8"?>
<!-- Generated by Pixelmator Pro 3.5.7 -->
<svg width="33" height="40" viewBox="0 0 33 40" xmlns="http://www.w3.org/2000/svg">
    <path id="Path" fill="#0072bb" stroke="none" d="M 8.163019 18.320074 L 22 5 L 17.587299 27.934654 L 16.946314 19.918814 L 8.163019 18.320074 Z"/>
    <path id="path1" fill="#0072bb" stroke="none" d="M 14.916345 17.857145 L 28.014778 18.064877 L 11.748205 32.732204 L 11.75298 32.734074 L 14.916345 17.857145 Z"/>
    <path id="Circular-Outline" fill="#0072bb" fill-rule="evenodd" stroke="none" d="M 16.75 35.5 C 7.775386 35.5 0.5 28.224619 0.5 19.25 C 0.5 10.275381 7.775386 3 16.75 3 C 25.724613 3 33 10.275381 33 19.25 C 33 28.224619 25.724613 35.5 16.75 35.5 Z M 16.75 32.980621 C 24.333202 32.980621 30.480621 26.833202 30.480621 19.25 C 30.480621 11.666794 24.333202 5.519379 16.75 5.519379 C 9.166796 5.519379 3.01938 11.666794 3.01938 19.25 C 3.01938 26.833202 9.166796 32.980621 16.75 32.980621 Z"/>
</svg>
