<?xml version="1.0" encoding="UTF-8"?>
<!-- Generated by Pixelmator Pro 3.5.7 -->
<svg width="150" height="44" viewBox="0 0 150 44" xmlns="http://www.w3.org/2000/svg">
    <path id="Path-copy" fill="#00a6f4" stroke="none" d="M 7.807645 23.378584 L 19 10 L 17.648487 30.457088 L 16.105438 23.597158 L 7.807645 23.378584 Z"/>
    <path id="Path-copy-copy" fill="#00a6f4" stroke="none" d="M 25.132601 22.531311 L 14.175438 36.103191 L 15.16972 15.625631 L 16.832256 22.457586 L 25.132601 22.531311 Z"/>
    <path id="Picoverse" fill="#00a6f4" fill-rule="evenodd" stroke="#00a6f4" d="M 131.160004 32.239998 C 130.043991 32.239998 129.044006 31.986004 128.160004 31.478001 C 127.275993 30.969997 126.578003 30.275005 126.066002 29.393 C 125.554001 28.510996 125.297997 27.514006 125.297997 26.402 C 125.297997 25.301994 125.546997 24.315004 126.044998 23.441 C 126.542999 22.566996 127.225998 21.875002 128.093994 21.365 C 128.962006 20.854998 129.935989 20.6 131.016006 20.6 C 132.028 20.6 132.921997 20.826998 133.697998 21.281 C 134.473999 21.735003 135.082993 22.363997 135.524994 23.167999 C 135.966995 23.972004 136.188004 24.895994 136.188004 25.940001 C 136.188004 26.036001 136.182007 26.16 136.169998 26.312 C 136.158005 26.464001 136.134003 26.647999 136.098007 26.864 L 126.155998 26.864 L 126.155998 25.802 L 135.395996 25.802 L 134.988007 26.143999 C 135.028 25.259996 134.886002 24.488003 134.561996 23.827999 C 134.237991 23.167997 133.772003 22.653002 133.164001 22.283001 C 132.556 21.912998 131.830002 21.728001 130.985992 21.728001 C 130.097992 21.728001 129.319 21.922998 128.649002 22.313 C 127.978996 22.703001 127.457001 23.241997 127.083 23.93 C 126.709 24.618004 126.522003 25.423996 126.522003 26.348 C 126.522003 27.296005 126.716995 28.125996 127.107002 28.838001 C 127.497002 29.550003 128.04599 30.104998 128.753998 30.503 C 129.462006 30.901001 130.285995 31.1 131.225998 31.1 C 131.949997 31.1 132.617996 30.966002 133.229996 30.698 C 133.84201 30.429998 134.360001 30.030003 134.783997 29.498001 L 135.582001 30.302 C 135.069992 30.910004 134.429001 31.384998 133.658997 31.727001 C 132.888992 32.069 132.056 32.239998 131.160004 32.239998 Z M 119.255997 32.239998 C 118.652 32.239998 118.081001 32.156002 117.542999 31.987999 C 117.004997 31.82 116.518005 31.586002 116.082001 31.285999 C 115.645996 30.985998 115.262001 30.636002 114.93 30.236 L 115.727997 29.42 C 116.188004 30.004002 116.716995 30.435999 117.315002 30.716 C 117.913002 30.996002 118.57 31.136 119.286003 31.136 C 120.118004 31.136 120.776001 30.967003 121.260002 30.629 C 121.744003 30.290998 121.986 29.822002 121.986 29.222 C 121.986 28.677998 121.833 28.250002 121.527 27.938 C 121.221001 27.625998 120.825005 27.381001 120.338997 27.202999 C 119.852997 27.025 119.340004 26.858002 118.800003 26.702 C 118.259995 26.546 117.747002 26.356001 117.261002 26.132 C 116.774994 25.907999 116.378998 25.595001 116.072998 25.193001 C 115.766998 24.790998 115.613998 24.252003 115.613998 23.576 C 115.613998 22.983997 115.764999 22.466002 116.067001 22.021999 C 116.369003 21.577997 116.796997 21.230001 117.350998 20.978001 C 117.905006 20.725998 118.561996 20.6 119.321999 20.6 C 120.142006 20.6 120.886993 20.745998 121.556999 21.038 C 122.227005 21.330002 122.759995 21.755997 123.155998 22.316 L 122.358002 23.114 C 122.033997 22.673998 121.602005 22.329 121.061996 22.079 C 120.521996 21.828999 119.918007 21.704 119.25 21.704 C 118.445999 21.704 117.834 21.873999 117.414001 22.214001 C 116.993996 22.554001 116.783997 22.983997 116.783997 23.504 C 116.783997 24.004002 116.936996 24.395998 117.242996 24.68 C 117.549004 24.964001 117.945 25.188 118.431 25.351999 C 118.917 25.516001 119.43 25.674 119.970001 25.826 C 120.510002 25.978001 121.022995 26.173998 121.509003 26.414 C 121.995003 26.654001 122.390999 26.981998 122.696999 27.398001 C 123.002998 27.814003 123.155998 28.379997 123.155998 29.096001 C 123.155998 30.060005 122.803001 30.824997 122.097 31.390999 C 121.390999 31.957003 120.444008 32.239998 119.255997 32.239998 Z M 106.823997 32 L 106.823997 20.84 L 108.042 20.84 L 108.042 32 Z M 108.042 25.34 L 107.435997 25.118 C 107.435997 23.697992 107.795998 22.590004 108.515999 21.794001 C 109.236 20.997995 110.179993 20.6 111.348 20.6 C 111.900002 20.6 112.410995 20.698 112.880997 20.893999 C 113.351006 21.09 113.785995 21.401999 114.185997 21.83 L 113.375999 22.688 C 113.071999 22.355999 112.741005 22.118 112.383003 21.974001 C 112.025002 21.83 111.612 21.757999 111.143997 21.757999 C 110.227997 21.757999 109.482002 22.064997 108.905998 22.679001 C 108.329994 23.293003 108.042 24.179995 108.042 25.34 Z M 99 32.239998 C 97.883995 32.239998 96.884003 31.986004 96 31.478001 C 95.115997 30.969997 94.417999 30.275005 93.905998 29.393 C 93.393997 28.510996 93.138 27.514006 93.138 26.402 C 93.138 25.301994 93.387001 24.315004 93.885002 23.441 C 94.383003 22.566996 95.065994 21.875002 95.933998 21.365 C 96.802002 20.854998 97.775993 20.6 98.856003 20.6 C 99.868004 20.6 100.761993 20.826998 101.538002 21.281 C 102.314003 21.735003 102.922997 22.363997 103.364998 23.167999 C 103.806999 23.972004 104.028 24.895994 104.028 25.940001 C 104.028 26.036001 104.022003 26.16 104.010002 26.312 C 103.998001 26.464001 103.973999 26.647999 103.938004 26.864 L 93.996002 26.864 L 93.996002 25.802 L 103.236 25.802 L 102.828003 26.143999 C 102.868004 25.259996 102.725998 24.488003 102.402 23.827999 C 102.077995 23.167997 101.612 22.653002 101.003998 22.283001 C 100.395996 21.912998 99.670006 21.728001 98.825996 21.728001 C 97.937996 21.728001 97.159004 21.922998 96.488998 22.313 C 95.819 22.703001 95.297005 23.241997 94.922997 23.93 C 94.548996 24.618004 94.362 25.423996 94.362 26.348 C 94.362 27.296005 94.556999 28.125996 94.946999 28.838001 C 95.337006 29.550003 95.885994 30.104998 96.594002 30.503 C 97.302002 30.901001 98.125992 31.1 99.066002 31.1 C 99.790001 31.1 100.458 30.966002 101.07 30.698 C 101.682007 30.429998 102.199997 30.030003 102.624001 29.498001 L 103.421997 30.302 C 102.909996 30.910004 102.269005 31.384998 101.499001 31.727001 C 100.728996 32.069 99.896004 32.239998 99 32.239998 Z M 86.057999 32 L 80.856003 20.84 L 82.199997 20.84 L 86.802002 30.962 L 86.064003 30.962 L 90.690002 20.84 L 92.003998 20.84 L 86.765999 32 Z M 73.961998 32.239998 C 72.877998 32.239998 71.901001 31.981003 71.030998 31.463001 C 70.160995 30.944998 69.470001 30.242004 68.958 29.354 C 68.445999 28.465996 68.190002 27.474005 68.190002 26.378 C 68.190002 25.293995 68.445999 24.316004 68.958 23.444 C 69.470001 22.571995 70.160995 21.880003 71.030998 21.368 C 71.901001 20.855997 72.877998 20.6 73.961998 20.6 C 75.038002 20.6 76.010994 20.854998 76.880997 21.365 C 77.751007 21.875002 78.441994 22.566996 78.954002 23.441 C 79.466003 24.315004 79.722 25.293995 79.722 26.378 C 79.722 27.486006 79.466003 28.480995 78.954002 29.362999 C 78.441994 30.245005 77.751007 30.944998 76.880997 31.463001 C 76.010994 31.981003 75.038002 32.239998 73.961998 32.239998 Z M 73.961998 31.082001 C 74.822006 31.082001 75.590996 30.877003 76.268997 30.466999 C 76.947006 30.056999 77.483002 29.495003 77.876999 28.781 C 78.271004 28.066998 78.468002 27.260004 78.468002 26.360001 C 78.468002 25.483995 78.270004 24.700003 77.874001 24.007999 C 77.477997 23.315996 76.942001 22.768002 76.265999 22.364 C 75.589996 21.959997 74.822006 21.757999 73.961998 21.757999 C 73.105995 21.757999 72.336006 21.959997 71.652 22.364 C 70.967995 22.768002 70.429001 23.315996 70.035004 24.007999 C 69.640999 24.700003 69.444 25.489996 69.444 26.378 C 69.444 27.278004 69.640999 28.081997 70.035004 28.790001 C 70.429001 29.498005 70.967995 30.056999 71.652 30.466999 C 72.336006 30.877003 73.105995 31.082001 73.961998 31.082001 Z M 62.34 32.239998 C 61.251995 32.239998 60.272003 31.982002 59.400002 31.466 C 58.527996 30.949997 57.837002 30.248005 57.327 29.360001 C 56.816998 28.471996 56.562 27.480005 56.562 26.384001 C 56.562 25.295994 56.816998 24.315004 57.327 23.441 C 57.837002 22.566996 58.527996 21.875002 59.400002 21.365 C 60.272003 20.854998 61.251995 20.6 62.34 20.6 C 63.164005 20.6 63.933998 20.753998 64.650002 21.062 C 65.366005 21.370001 65.977997 21.801998 66.486 22.358 L 65.676003 23.174 C 65.267998 22.725998 64.777 22.378002 64.203003 22.129999 C 63.628998 21.881998 63.008003 21.757999 62.34 21.757999 C 61.479996 21.757999 60.708004 21.959997 60.023998 22.364 C 59.339996 22.768002 58.801003 23.315996 58.407001 24.007999 C 58.012997 24.700003 57.816002 25.491995 57.816002 26.384001 C 57.816002 27.284004 58.012997 28.086996 58.407001 28.792999 C 58.801003 29.499004 59.339996 30.056999 60.023998 30.466999 C 60.708004 30.877003 61.479996 31.082001 62.34 31.082001 C 63.020004 31.082001 63.649998 30.958 64.230003 30.709999 C 64.810005 30.461998 65.309998 30.108002 65.730003 29.647999 L 66.540001 30.464001 C 66.019997 31.032001 65.396004 31.469997 64.667999 31.778 C 63.939995 32.086002 63.164005 32.239998 62.34 32.239998 Z M 52.433998 32 L 52.433998 20.84 L 53.652 20.84 L 53.652 32 Z M 53.034 18.242001 C 52.765999 18.242001 52.541 18.144001 52.359001 17.948 C 52.176998 17.751999 52.085999 17.52 52.085999 17.252001 C 52.085999 16.971998 52.176998 16.740002 52.359001 16.556 C 52.541 16.372 52.765999 16.280001 53.034 16.280001 C 53.318001 16.280001 53.552998 16.372 53.738998 16.556 C 53.924999 16.740002 54.018002 16.971998 54.018002 17.252001 C 54.018002 17.52 53.924999 17.751999 53.738998 17.948 C 53.552998 18.144001 53.318001 18.242001 53.034 18.242001 Z M 39 25.232 L 39 24.110001 L 44.189999 24.110001 C 44.932255 24.110001 45.592808 23.961376 46.171688 23.664125 C 46.750565 23.366873 47.206997 22.943378 47.541 22.393625 C 47.875 21.843872 48.042 21.190004 48.042 20.431999 C 48.042 19.673996 47.875 19.020128 47.541 18.470375 C 47.206997 17.920622 46.750565 17.497126 46.171688 17.199875 C 45.592808 16.902624 44.932255 16.754 44.189999 16.754 L 39 16.754 L 39 15.632 L 44.316002 15.632 C 45.276005 15.632 46.130997 15.829998 46.881001 16.226 C 47.631004 16.622002 48.225998 17.178621 48.666 17.895876 C 49.106003 18.613129 49.326 19.45812 49.326 20.430876 C 49.326 21.403629 49.106003 22.248997 48.666 22.966999 C 48.225998 23.685003 47.631004 24.241999 46.881001 24.638 C 46.130997 25.034002 45.276005 25.232 44.316002 25.232 Z M 38.237999 32 L 38.237999 15.632 L 39.504002 15.632 L 39.504002 32 Z"/>
    <path id="by-nroxas" fill="#00a6f4" fill-rule="evenodd" stroke="#00a6f4" stroke-width="0.5" d="M 135.218994 37.060001 C 135.067993 37.060001 134.925247 37.039001 134.790756 36.997002 C 134.65625 36.955002 134.5345 36.8965 134.425507 36.821499 C 134.316498 36.746498 134.220505 36.659 134.137497 36.558998 L 134.337006 36.355 C 134.451996 36.500999 134.584244 36.609001 134.733749 36.679001 C 134.883255 36.749001 135.047501 36.784 135.226501 36.784 C 135.434494 36.784 135.598999 36.741753 135.720001 36.657249 C 135.841003 36.57275 135.901505 36.455502 135.901505 36.3055 C 135.901505 36.169498 135.863251 36.0625 135.786743 35.984501 C 135.710251 35.906502 135.611252 35.845249 135.489746 35.800751 C 135.368256 35.756248 135.240005 35.7145 135.104996 35.675499 C 134.970001 35.636497 134.841751 35.589001 134.720245 35.533001 C 134.598755 35.476997 134.499756 35.39875 134.423248 35.298248 C 134.346756 35.19775 134.308502 35.063 134.308502 34.894001 C 134.308502 34.745998 134.346252 34.616501 134.421753 34.505501 C 134.497253 34.394501 134.604248 34.307499 134.742752 34.244499 C 134.881256 34.181499 135.045502 34.150002 135.235504 34.150002 C 135.440506 34.150002 135.626755 34.186501 135.79425 34.259499 C 135.961746 34.3325 136.095001 34.438999 136.194 34.579002 L 135.994507 34.7785 C 135.913498 34.668499 135.805496 34.582253 135.670502 34.519749 C 135.535492 34.457249 135.384506 34.425999 135.217499 34.425999 C 135.016495 34.425999 134.863495 34.468498 134.758499 34.553501 C 134.653503 34.6385 134.600998 34.745998 134.600998 34.875999 C 134.600998 35.000999 134.639252 35.098999 134.715744 35.169998 C 134.792252 35.241001 134.891251 35.297001 135.012756 35.338001 C 135.134247 35.379002 135.262497 35.418499 135.397507 35.456501 C 135.532501 35.494499 135.660751 35.543499 135.782257 35.6035 C 135.903748 35.663498 136.002747 35.745499 136.079254 35.849499 C 136.155746 35.953499 136.194 36.095001 136.194 36.274002 C 136.194 36.514999 136.105743 36.706249 135.929245 36.847748 C 135.752747 36.98925 135.516006 37.060001 135.218994 37.060001 Z M 132.102005 37.060001 C 131.832993 37.060001 131.591995 36.99625 131.378998 36.868752 C 131.166 36.741249 130.997757 36.568253 130.874252 36.349751 C 130.750748 36.131248 130.688995 35.885002 130.688995 35.611 C 130.688995 35.335999 130.750748 35.088501 130.874252 34.8685 C 130.997757 34.648499 131.165253 34.473751 131.376755 34.34425 C 131.588257 34.214748 131.826996 34.150002 132.093002 34.150002 C 132.307007 34.150002 132.498993 34.191002 132.669006 34.272999 C 132.839005 34.355 132.979248 34.470497 133.089752 34.619499 C 133.200256 34.768501 133.272003 34.944 133.304993 35.146 L 133.304993 36.059502 C 133.268997 36.261501 133.195999 36.437748 133.085999 36.588249 C 132.975998 36.73875 132.83725 36.855 132.669754 36.937 C 132.502243 37.019001 132.313004 37.060001 132.102005 37.060001 Z M 132.147003 36.773499 C 132.466003 36.773499 132.720749 36.666752 132.911255 36.453251 C 133.101746 36.23975 133.197006 35.958504 133.197006 35.609501 C 133.197006 35.374496 133.153244 35.16925 133.06575 34.993752 C 132.978256 34.818249 132.854752 34.681499 132.695251 34.5835 C 132.535751 34.4855 132.350006 34.436501 132.138 34.436501 C 131.917999 34.436501 131.723007 34.487 131.552994 34.588001 C 131.382996 34.688999 131.248749 34.827248 131.150253 35.00275 C 131.051743 35.178253 131.002502 35.378998 131.002502 35.605 C 131.002502 35.831001 131.051743 36.03175 131.150253 36.207249 C 131.248749 36.382751 131.384506 36.521 131.557495 36.622002 C 131.730499 36.723 131.927002 36.773499 132.147003 36.773499 Z M 133.182007 37 L 133.182007 36.252998 L 133.251007 35.564499 L 133.182007 34.890999 L 133.182007 34.209999 L 133.486496 34.209999 L 133.486496 37 Z M 129.983994 37 L 128.980499 35.6875 L 128.910004 35.628998 L 127.766998 34.209999 L 128.1465 34.209999 L 129.095993 35.408501 L 129.164993 35.460999 L 130.362 37 Z M 127.717499 37 L 128.917496 35.485001 L 129.076508 35.716 L 128.085007 37 Z M 129.175507 35.625999 L 129.014999 35.405502 L 129.946503 34.209999 L 130.3125 34.209999 Z M 125.952003 37.060001 C 125.681 37.060001 125.436752 36.995251 125.219254 36.865749 C 125.001747 36.736248 124.829002 36.560501 124.700996 36.338501 C 124.572998 36.116501 124.509003 35.8685 124.509003 35.594498 C 124.509003 35.323498 124.572998 35.079002 124.700996 34.861 C 124.829002 34.642998 125.001747 34.470001 125.219254 34.341999 C 125.436752 34.214001 125.681 34.150002 125.952003 34.150002 C 126.221008 34.150002 126.464249 34.213749 126.681747 34.341251 C 126.899246 34.46875 127.072006 34.64175 127.199997 34.860252 C 127.328003 35.078751 127.391998 35.323498 127.391998 35.594498 C 127.391998 35.871502 127.328003 36.120247 127.199997 36.340752 C 127.072006 36.561249 126.899246 36.736248 126.681747 36.865749 C 126.464249 36.995251 126.221008 37.060001 125.952003 37.060001 Z M 125.952003 36.7705 C 126.167007 36.7705 126.359253 36.71925 126.528748 36.616749 C 126.698257 36.514252 126.832245 36.373749 126.930756 36.195251 C 127.029251 36.01675 127.078506 35.815002 127.078506 35.59 C 127.078506 35.370998 127.029007 35.175003 126.929993 35.001999 C 126.830994 34.828999 126.697006 34.692001 126.528 34.591 C 126.358994 34.489998 126.167007 34.439499 125.952003 34.439499 C 125.737999 34.439499 125.545502 34.489998 125.374496 34.591 C 125.203499 34.692001 125.068748 34.828999 124.970253 35.001999 C 124.87175 35.175003 124.822502 35.372498 124.822502 35.594498 C 124.822502 35.8195 124.87175 36.0205 124.970253 36.197502 C 125.068748 36.3745 125.203499 36.514252 125.374496 36.616749 C 125.545502 36.71925 125.737999 36.7705 125.952003 36.7705 Z M 122.454002 37 L 122.454002 34.209999 L 122.758499 34.209999 L 122.758499 37 Z M 122.758499 35.334999 L 122.607002 35.279499 C 122.607002 34.9245 122.696999 34.647499 122.876999 34.448502 C 123.056999 34.2495 123.292999 34.150002 123.584999 34.150002 C 123.723 34.150002 123.850746 34.1745 123.968246 34.223499 C 124.085754 34.272499 124.194496 34.350498 124.294502 34.4575 L 124.092003 34.672001 C 124.015999 34.589001 123.93325 34.529499 123.84375 34.4935 C 123.75425 34.4575 123.651001 34.439499 123.533997 34.439499 C 123.305 34.439499 123.1185 34.516251 122.974503 34.66975 C 122.830498 34.82325 122.758499 35.044998 122.758499 35.334999 Z M 121.306503 37 L 121.306503 35.347 C 121.306503 35.073997 121.226753 34.853001 121.067253 34.683998 C 120.907753 34.514999 120.696129 34.4305 120.432373 34.4305 C 120.252876 34.4305 120.094437 34.469749 119.957062 34.548248 C 119.819687 34.626751 119.711754 34.734001 119.633247 34.869999 C 119.554749 35.006001 119.515503 35.163498 119.515503 35.342499 L 119.356499 35.252499 C 119.356499 35.0415 119.406746 34.853249 119.507248 34.687752 C 119.60775 34.522247 119.744453 34.391251 119.917358 34.29475 C 120.090263 34.19825 120.285995 34.150002 120.504562 34.150002 C 120.72319 34.150002 120.915749 34.201248 121.082253 34.303749 C 121.248749 34.40625 121.378502 34.54525 121.471497 34.720749 C 121.564499 34.896252 121.611 35.092999 121.611 35.311001 L 121.611 37 Z M 119.210999 37 L 119.210999 34.209999 L 119.515503 34.209999 L 119.515503 37 Z M 115.792503 37.0075 L 114.549004 34.209999 L 114.883499 34.209999 L 115.957497 36.688 L 115.801498 36.688 L 116.928001 34.209999 L 117.264 34.209999 L 115.948502 37.0075 Z M 115.065002 38.181999 L 115.783501 36.704498 L 115.948502 37.0075 L 115.3965 38.181999 Z M 112.8675 37.060001 C 112.656502 37.060001 112.464249 37.01825 112.290749 36.93475 C 112.117249 36.85125 111.972504 36.734253 111.856499 36.583748 C 111.740501 36.43325 111.664497 36.258499 111.628502 36.059502 L 111.628502 35.146 C 111.664497 34.940998 111.741501 34.764 111.859497 34.614998 C 111.977501 34.466 112.124001 34.35125 112.299004 34.270752 C 112.473999 34.19025 112.663498 34.150002 112.8675 34.150002 C 113.130501 34.150002 113.365501 34.214001 113.572502 34.341999 C 113.779503 34.470001 113.943253 34.643997 114.063751 34.863998 C 114.18425 35.084 114.244499 35.333 114.244499 35.611 C 114.244499 35.885002 114.184998 36.131248 114.066002 36.349751 C 113.946999 36.568253 113.783249 36.741249 113.574753 36.868752 C 113.366249 36.99625 113.130501 37.060001 112.8675 37.060001 Z M 112.813499 36.773499 C 113.033501 36.773499 113.226997 36.723751 113.393997 36.624252 C 113.561005 36.52475 113.692253 36.386501 113.78775 36.209499 C 113.883247 36.032501 113.931 35.831001 113.931 35.605 C 113.931 35.375999 113.883247 35.173752 113.78775 34.998249 C 113.692253 34.82275 113.561752 34.685249 113.396248 34.585751 C 113.230751 34.486252 113.041 34.436501 112.827003 34.436501 C 112.612999 34.436501 112.4245 34.486252 112.261497 34.585751 C 112.098495 34.685249 111.971001 34.82275 111.878998 34.998249 C 111.787003 35.173752 111.740997 35.377499 111.740997 35.609501 C 111.740997 35.835503 111.786247 36.036247 111.876747 36.21175 C 111.967247 36.387253 112.093246 36.52475 112.254753 36.624252 C 112.416252 36.723751 112.602501 36.773499 112.813499 36.773499 Z M 111.4515 37 L 111.4515 32.788002 L 111.755997 32.788002 L 111.755997 34.890999 L 111.682503 35.564499 L 111.755997 36.252998 L 111.755997 37 Z"/>
    <path id="Circular-Outline-copy" fill="#00a6f4" fill-rule="evenodd" stroke="none" d="M 17.25 39 C 8.551528 39 1.5 31.948477 1.5 23.25 C 1.5 14.551523 8.551528 7.5 17.25 7.5 C 25.948471 7.5 33 14.551523 33 23.25 C 33 31.948477 25.948471 39 17.25 39 Z M 17.25 36.55814 C 24.599873 36.55814 30.55814 30.599873 30.55814 23.25 C 30.55814 15.900124 24.599873 9.94186 17.25 9.94186 C 9.900125 9.94186 3.94186 15.900124 3.94186 23.25 C 3.94186 30.599873 9.900125 36.55814 17.25 36.55814 Z"/>
</svg>
